# xmcd
#
# Track frame offsets: 
#        150
#        17560
#        31222
#        45171
#        62546
#        80341
#        98579
#        114891
#        134005
#        146760
#        163295
#        180976
#        193090
#
# Disc length: 2861 seconds
#
# Revision: 0
# Processed by: cddbd v1.5.2PL0 Copyright (c) Steve Scherf et al.
# Submitted via: ExactAudioCopyFreeDBPlugin 1.0
#
DISCID=a00b2b0d
DTITLE=Craig Woolard Band - Come Get To This
DYEAR=2007
DGENRE=Blues
TTITLE0=River Of Love
TTITLE1=What You Gave Me
TTITLE2=Money Honey
TTITLE3=I Can't Dance
TTITLE4=I Couldn't Believe It
TTITLE5=On The Beach
TTITLE6=Hopelessly In Love
TTITLE7=Every Time You Cry
TTITLE8=The Coast Is Clear
TTITLE9=Bet You'll Never Be Sorry
TTITLE10=Color Away
TTITLE11=Come Get To This
TTITLE12=Save Room (Ft. Craig Michael)
EXTD=
EXTT0=
EXTT1=
EXTT2=
EXTT3=
EXTT4=
EXTT5=
EXTT6=
EXTT7=
EXTT8=
EXTT9=
EXTT10=
EXTT11=
EXTT12=
PLAYORDER=
